<?xml version="1.0" encoding="UTF-8"?>
<svg width="50px" height="50px" viewBox="0 0 50 50" version="1.1" xmlns="http://www.w3.org/2000/svg" xmlns:xlink="http://www.w3.org/1999/xlink">
    <!-- Generator: Sketch 63.1 (92452) - https://sketch.com -->
    <title>graph</title>
    <desc>Created with Sketch.</desc>
    <defs>
        <linearGradient x1="18.2337194%" y1="50%" x2="100%" y2="50%" id="linearGradient-1">
            <stop stop-color="#4564CF" offset="0%"></stop>
            <stop stop-color="#5DBFEA" offset="100%"></stop>
        </linearGradient>
    </defs>
    <g id="Homepage-" stroke="none" stroke-width="1" fill="none" fill-rule="evenodd">
        <g id="DMM_Homepage_mh_3a" transform="translate(-922.000000, -3859.000000)" fill="url(#linearGradient-1)" fill-rule="nonzero">
            <g id="who-we-are" transform="translate(0.000000, 3378.000000)">
                <g id="services-copy">
                    <g id="graph" transform="translate(922.000000, 481.000000)">
                        <path d="M44.2356698,37.5 L44.2356698,42.5 C44.2356698,43.8825 42.8024198,45 41.4475698,45 L34.4356698,45 L34.4356698,35 L41.4475698,35 C42.8024198,35 44.2356698,36.12 44.2356698,37.5 L44.2356698,37.5 Z M29.5356698,30 L29.5356698,35 L29.5356698,45 L19.7356698,45 L19.7356698,20 L26.7475698,20 C28.1024198,20 29.5356698,21.12 29.5356698,22.5 L29.5356698,30 Z M14.8356698,15 L14.8356698,20 L14.8356698,45 L7.14756979,45 C5.79516979,45 5.03566979,43.8825 5.03566979,42.5 L5.03566979,7.5 C5.03566979,6.12 5.79516979,5 7.14756979,5 L12.0475698,5 C13.4024198,5 14.8356698,6.12 14.8356698,7.5 L14.8356698,15 Z M34.4356698,20 C34.4356698,17.24 31.9048198,15 29.1975698,15 L19.7356698,15 L19.7356698,5 C19.7356698,2.24 17.2048198,0 14.4975698,0 L4.69756979,0 C1.99276979,0 0.13566979,2.24 0.13566979,5 L0.13566979,45 C0.13566979,47.7625 2.16181979,50 4.86661979,50 L4.69756979,50 L14.4975698,50 L19.3975698,50 L29.1975698,50 L34.0975698,50 L43.8975698,50 C46.6048198,50 49.1356698,47.7625 49.1356698,45 L49.1356698,35 C49.1356698,32.24 46.9429198,30.005 44.2381198,30.0025 L34.4356698,30 L34.4356698,20 Z" id="Fill-7"></path>
                    </g>
                </g>
            </g>
        </g>
    </g>
</svg>