<?xml version="1.0" encoding="UTF-8"?>
<svg width="49px" height="50px" viewBox="0 0 49 50" version="1.1" xmlns="http://www.w3.org/2000/svg" xmlns:xlink="http://www.w3.org/1999/xlink">
    <!-- Generator: Sketch 63.1 (92452) - https://sketch.com -->
    <title>person</title>
    <desc>Created with Sketch.</desc>
    <defs>
        <linearGradient x1="18.2337194%" y1="50%" x2="100%" y2="50%" id="linearGradient-1">
            <stop stop-color="#4564CF" offset="0%"></stop>
            <stop stop-color="#5DBFEA" offset="100%"></stop>
        </linearGradient>
    </defs>
    <g id="Homepage-" stroke="none" stroke-width="1" fill="none" fill-rule="evenodd">
        <g id="DMM_Homepage_mh_3a" transform="translate(-630.000000, -3859.000000)" fill="url(#linearGradient-1)" fill-rule="nonzero">
            <g id="who-we-are" transform="translate(0.000000, 3378.000000)">
                <g id="services-copy">
                    <g id="person" transform="translate(629.666667, 481.000000)">
                        <path d="M40.7702739,45.0195451 L8.84724152,45.0195451 C7.12905389,45.0195451 5.85779367,43.2947078 6.50832136,41.7036952 C9.51514972,34.3582707 16.5790859,30.1502642 24.8075163,30.1502642 C33.0384296,30.1502642 40.0998828,34.3582707 43.1067111,41.7036952 C43.7572388,43.2947078 42.4884616,45.0195451 40.7702739,45.0195451 M14.8757958,15.2809831 C14.8757958,9.81652228 19.3326554,5.36812904 24.8075163,5.36812904 C30.2848601,5.36812904 34.7392367,9.81652228 34.7392367,15.2809831 C34.7392367,20.7479221 30.2848601,25.1938371 24.8075163,25.1938371 C19.3326554,25.1938371 14.8757958,20.7479221 14.8757958,15.2809831 M49.0235336,44.117476 C47.2184434,35.7931563 41.5722603,29.6521432 34.1408505,26.864153 C38.0787777,23.6969962 40.377971,18.5819634 39.5312918,12.9762446 C38.5505344,6.4783688 33.1352638,1.27659866 26.5952259,0.515787077 C17.5672921,-0.530019055 9.90993561,6.48332509 9.90993561,15.2809831 C9.90993561,19.9672848 12.0849824,24.1381182 15.4766649,26.864153 C8.04277217,29.6521432 2.39907203,35.7931563 0.591498917,44.117476 C-0.0639946317,47.1433737 2.37920859,49.9759722 5.4803883,49.9759722 L44.1346442,49.9759722 C47.2383068,49.9759722 49.6815101,47.1433737 49.0235336,44.117476" id="Fill-1"></path>
                    </g>
                </g>
            </g>
        </g>
    </g>
</svg>